<svg id="Componente_1_1" data-name="Componente 1 – 1" xmlns="http://www.w3.org/2000/svg" xmlns:xlink="http://www.w3.org/1999/xlink" width="67" height="67" viewBox="0 0 67 67">
  <defs>
    <clipPath id="clip-path">
      <circle id="Elipse_2" data-name="Elipse 2" cx="33.5" cy="33.5" r="33.5" transform="translate(459 1660)" fill="#417b48"/>
    </clipPath>
  </defs>
  <g id="Grupo_de_máscara_1" data-name="Grupo de máscara 1" transform="translate(-459 -1660)" clip-path="url(#clip-path)">
    <path id="iconmonstr-medical-5" d="M26.878,8.783a3.923,3.923,0,1,1,.116-3.937c5.081.579,8.6,3.5,8.3,8.316-.363,5.609-6.462,14.948-11.773,19.011a7.652,7.652,0,0,1-3.52,5.705,8.226,8.226,0,0,0,8.275,4.094,11.253,11.253,0,0,0,7.769-5.283,6.863,6.863,0,1,1,3.722,1.4c-2.266,4.183-7.065,7.865-12.462,7.865-5.323,0-9.4-2.937-11.614-7.849A8.917,8.917,0,0,1,11.8,32.161C6.356,27.966,0,18.092,0,12.615,0,7.942,3.679,5.391,8.318,4.852a3.925,3.925,0,1,1,.126,3.941c-4.022.587-5.007,2.525-4.3,5.36,1.242,5.036,7.073,13.474,11.591,15.932a3.316,3.316,0,0,0,3.845,0C24.931,27.18,31.317,16.951,31.39,12.711c.043-2.527-2.019-3.573-4.512-3.928m13.341,25.4a2.943,2.943,0,1,1,2.943-2.943,2.946,2.946,0,0,1-2.943,2.943" transform="translate(469 1670)" fill="#417b48" fill-rule="evenodd"/>
  </g>
</svg>
