<svg xmlns="http://www.w3.org/2000/svg" width="46" height="46" viewBox="0 0 46 46">
  <g id="icon_modalidades" transform="translate(-284 -4371)">
    <circle id="Elipse_3" data-name="Elipse 3" cx="23" cy="23" r="23" transform="translate(284 4371)" fill="#fff"/>
    <path id="iconmonstr-keyboard-13" d="M15.326,11.675a1.821,1.821,0,0,1,2.589,1.452,1.7,1.7,0,0,0-.962-.539,1.881,1.881,0,0,0-1.125.155,1.755,1.755,0,0,0-1.037,1.848A1.822,1.822,0,0,1,15.326,11.675Zm1.126,10.788a19.93,19.93,0,0,1,5.56,4.2L28,23.858c-1.022-2.177-.4-3.457-1.409-5.619-.693-1.477-1.222-1.6-2.225-1.594l.357.761a.383.383,0,0,1-.693.324l-.317-.68c-.26-.552-.993-.371-1.64-.342l.434.924a.382.382,0,0,1-.693.323l-.376-.8c-.265-.566-1.026-.359-1.679-.316l.458.979a.382.382,0,0,1-.691.324l-1.863-3.961a1.044,1.044,0,0,0-1.89.885l2.743,5.857a5.463,5.463,0,0,0-1.5-.563c-1.407-.254-2.227,1.187-.568,2.1ZM8.167,6.833H10.5V4.5H8.167Zm11.667,3.5H24.5V8H19.833Zm2.333-3.5H24.5V4.5H22.167Zm-12.833,3.5h2.333V8H9.333ZM3.5,4.5V6.833H7V4.5Zm8.513,8.076A4.105,4.105,0,0,1,12.39,11.5H8.167v2.333H12A4.1,4.1,0,0,1,12.013,12.576ZM3.5,10.333H8.167V8H3.5Zm8.167-3.5H14V4.5H11.667Zm7,0H21V4.5H18.667Zm-5.551,9.382A4.111,4.111,0,0,1,12.329,15h-10V3.333H25.667V14.452A3.831,3.831,0,0,1,28,16.045V1H0V17.333H14.2Zm-.282-5.882h2.333V8H12.833Zm3.5,0h2.333V8H16.333v2.333Zm-1.167-3.5H17.5V4.5H15.167Z" transform="translate(293 4382.167)" fill="#417b48"/>
  </g>
</svg>
