<svg xmlns="http://www.w3.org/2000/svg" width="46" height="46" viewBox="0 0 46 46">
  <g id="icon_ensino" transform="translate(-284 -4371)">
    <circle id="Elipse_3" data-name="Elipse 3" cx="23" cy="23" r="23" transform="translate(284 4371)" fill="#fff"/>
    <path id="iconmonstr-school-25" d="M15.088,21.838a14.414,14.414,0,0,1,6.855-2.493v8.076a24.123,24.123,0,0,0-6.855,2.493Zm-1.246,0a14.414,14.414,0,0,0-6.855-2.493v8.076a24.123,24.123,0,0,1,6.855,2.493Zm-8.1,3.636a12.741,12.741,0,0,1-3.734-1.791l0-2.524c-.01-2.651.11-4.168,3.3-4.872,3.5-.772,7.228-1.642,5.286-4.389C5.724,5.013,9.579,0,14.465,0s8.72,4.975,3.876,11.9c-1.906,2.723,1.715,3.6,5.287,4.389,3.2.708,3.312,2.232,3.3,4.9l0,2.493a12.741,12.741,0,0,1-3.734,1.791V17.991l-1.349.111a15.626,15.626,0,0,0-7.377,2.652A15.626,15.626,0,0,0,7.088,18.1l-1.349-.111v7.482Z" transform="translate(292.536 4379.042)" fill="#417b48" fill-rule="evenodd"/>
  </g>
</svg>
